<mxfile host="app.diagrams.net" modified="2023-04-25T18:55:08.106Z" agent="Mozilla/5.0 (Windows NT 10.0; Win64; x64) AppleWebKit/537.36 (KHTML, like Gecko) Chrome/110.0.0.0 Safari/537.36" version="21.2.2" etag="NUTLERidc7OT7iUI8V1M" type="github">
  <diagram name="PÃ¡gina-1" id="_-mAy655ih9rpCbDnkk7">
    <mxGraphModel>
      <root>
        <mxCell id="0" />
        <mxCell id="1" parent="0" />
      </root>
    </mxGraphModel>
  </diagram>
</mxfile>
